<svg xmlns="http://www.w3.org/2000/svg" width="170" height="120" viewBox="0 0 170 120"><defs><style>.cls-1{fill:#222;fill-rule:evenodd}</style></defs><path id="iPad_Air" data-name="iPad Air" class="cls-1" d="M718.075 6299.09a7.234 7.234 0 0 0-2.075 5.12v105.84a6.831 6.831 0 0 0 2.081 4.89 7.091 7.091 0 0 0 5.019 2.06h155.8a7.384 7.384 0 0 0 7.1-7.63v-104.75a7.753 7.753 0 0 0-2.066-5.35 7.269 7.269 0 0 0-5.351-2.27H723.1a7.006 7.006 0 0 0-5.025 2.09zm160.508-1.55a6.86 6.86 0 0 1 6.877 7.08v104.75a6.842 6.842 0 0 1-6.556 7.09H723.1a6.524 6.524 0 0 1-6.557-6.41v-105.84a6.579 6.579 0 0 1 6.557-6.67h155.483zm-161.234 6.66v105.84a5.505 5.505 0 0 0 1.679 3.94 5.749 5.749 0 0 0 4.068 1.67H878.9a6.043 6.043 0 0 0 5.747-6.29v-104.74a6.391 6.391 0 0 0-1.7-4.43 5.919 5.919 0 0 0-4.367-1.85H723.1a5.669 5.669 0 0 0-4.06 1.69 5.9 5.9 0 0 0-1.691 4.17zm161.234-5.32a5.376 5.376 0 0 1 3.973 1.67 5.9 5.9 0 0 1 1.555 4.07v104.74a5.505 5.505 0 0 1-5.207 5.75H723.1a5.25 5.25 0 0 1-3.689-1.51 4.987 4.987 0 0 1-1.518-3.56V6304.2a5.359 5.359 0 0 1 1.531-3.79 5.121 5.121 0 0 1 3.676-1.53h155.483zm-147.338 6.33v103.44a.672.672 0 0 0 .674.67h138.158a.672.672 0 0 0 .675-.67v-103.44a.672.672 0 0 0-.675-.67H731.919a.672.672 0 0 0-.674.67zm138.832 0v103.44H731.919v-103.44h138.158zM725.31 6357a1.012 1.012 0 1 0-1.012 1.01 1.01 1.01 0 0 0 1.012-1.01zm-1.619 0a.608.608 0 1 1 .607.6.607.607 0 0 1-.607-.6zm1.177 2.89a.545.545 0 1 0-.544.54.541.541 0 0 0 .544-.54zm149.258-2.82a4.045 4.045 0 0 0 4.049 4.04h.1a4.041 4.041 0 1 0-4.149-4.04zm7.558 0a3.5 3.5 0 0 1-3.426 3.5h-.083a3.5 3.5 0 1 1 3.509-3.5zm-4.994-.8v1.59a.688.688 0 0 0 .685.69h1.6a.688.688 0 0 0 .685-.69v-1.59a.68.68 0 0 0-.685-.68h-1.6a.68.68 0 0 0-.685.68zm2.284-.15a.149.149 0 0 1 .145.15v1.59a.149.149 0 0 1-.145.15h-1.6a.149.149 0 0 1-.145-.15v-1.59a.149.149 0 0 1 .145-.15h1.6z" transform="translate(-716 -6297)"/></svg>