<svg xmlns="http://www.w3.org/2000/svg" width="24" height="19.5" viewBox="0 0 24 19.5"><defs><style>.cls-1{fill:#222;fill-rule:evenodd}</style></defs><path class="cls-1" d="M23.992 2.32a9.921 9.921 0 0 1-2.828.77A4.927 4.927 0 0 0 23.329.37a9.926 9.926 0 0 1-3.127 1.19 4.929 4.929 0 0 0-8.39 4.49A13.952 13.952 0 0 1 1.663.91a4.923 4.923 0 0 0 1.524 6.57 4.813 4.813 0 0 1-2.23-.61v.06a4.94 4.94 0 0 0 3.95 4.83 5.035 5.035 0 0 1-1.3.17 4.723 4.723 0 0 1-.927-.09 4.926 4.926 0 0 0 4.6 3.42 9.884 9.884 0 0 1-6.115 2.11A11.354 11.354 0 0 1-.01 17.3 14.007 14.007 0 0 0 21.548 5.5q0-.315-.015-.63a10.044 10.044 0 0 0 2.459-2.55z"/></svg>