<svg xmlns="http://www.w3.org/2000/svg" width="72" height="151" viewBox="0 0 72 151"><defs><style>.cls-1{fill:#222;fill-rule:evenodd}</style></defs><path id="iPhone_5c" data-name="iPhone 5c" class="cls-1" d="M65.107 4.032a11.046 11.046 0 0 0-4.453-.851h-48a11.048 11.048 0 0 0-4.454.851 8.111 8.111 0 0 0-2.908 2.131 9 9 0 0 0-2.12 5.812v128.172a9 9 0 0 0 2.121 5.812A8.105 8.105 0 0 0 8.2 148.09a11.028 11.028 0 0 0 4.453.852h48a11.026 11.026 0 0 0 4.453-.852 8.1 8.1 0 0 0 2.907-2.131 9 9 0 0 0 2.12-5.812V11.975a9 9 0 0 0-2.12-5.812 8.109 8.109 0 0 0-2.906-2.131zm4.282 11.223v124.892a8.238 8.238 0 0 1-1.938 5.322 7.364 7.364 0 0 1-2.643 1.935 10.3 10.3 0 0 1-4.154.79h-48A10.3 10.3 0 0 1 8.5 147.4a7.368 7.368 0 0 1-2.642-1.935 8.238 8.238 0 0 1-1.938-5.322V11.975a8.233 8.233 0 0 1 1.936-5.321A7.365 7.365 0 0 1 8.5 4.718a10.3 10.3 0 0 1 4.154-.789h48a10.3 10.3 0 0 1 4.154.789 7.364 7.364 0 0 1 2.642 1.936 8.233 8.233 0 0 1 1.938 5.322v3.279zm.011-10.29C67.958 3.295 65.252 1.3 60.561 1.3h-.032V.9a.953.953 0 0 0-.905-.9H48.96a.952.952 0 0 0-.9.91v.39h-35.5c-4.691 0-7.4 1.991-8.84 3.662a10.988 10.988 0 0 0-2.6 7.1v9.573H.813A.786.786 0 0 0 0 22.39v6.21a.786.786 0 0 0 .814.753h.305v3.111h-.29a.9.9 0 0 0-.83.825v9.585a.867.867 0 0 0 .8.819h.32v2.571H.811a.851.851 0 0 0-.812.8v9.661a.88.88 0 0 0 .836.807h.284v82.706a10.987 10.987 0 0 0 2.6 7.1c1.443 1.673 4.149 3.662 8.84 3.662h48c4.691 0 7.4-1.99 8.84-3.661a10.987 10.987 0 0 0 2.6-7.1V12.065a10.989 10.989 0 0 0-2.599-7.1zM48.622.907a.4.4 0 0 1 .338-.348h10.664a.4.4 0 0 1 .345.341v.4H48.622V.9zM.813 28.788A.2.2 0 0 1 .61 28.6v-6.21a.2.2 0 0 1 .2-.188h.309v6.586H.813zM.8 43.131a.316.316 0 0 1-.245-.257v-9.586a.352.352 0 0 1 .27-.264h.29v10.107H.8zm.036 13.842a.34.34 0 0 1-.277-.245v-9.661a.307.307 0 0 1 .252-.242h.308v10.148H.836zm70.418-41.63v124.9a10.229 10.229 0 0 1-2.417 6.609c-1.341 1.553-3.867 3.4-8.276 3.4h-48c-4.41 0-6.935-1.85-8.276-3.4a10.229 10.229 0 0 1-2.417-6.609V12.065a10.23 10.23 0 0 1 2.415-6.61c1.342-1.552 3.866-3.4 8.276-3.4h48c4.41 0 6.935 1.85 8.276 3.4a10.231 10.231 0 0 1 2.417 6.609v3.279zM36.56 10.521a1.591 1.591 0 1 0-1.586-1.591 1.59 1.59 0 0 0 1.586 1.591zm0-2.62a1.029 1.029 0 1 1-1.026 1.029A1.029 1.029 0 0 1 36.56 7.9zm0 1.623a.561.561 0 1 0-.56-.561.561.561 0 0 0 .56.561zm-5.083 6.565h10.166a1.5 1.5 0 0 0 0-2.994H31.477a1.5 1.5 0 0 0 0 2.994zm0-2.221h10.166a.725.725 0 0 1 0 1.449H31.477a.725.725 0 0 1 0-1.449zm5.083 119.476a6.55 6.55 0 1 0 6.529 6.551 6.54 6.54 0 0 0-6.529-6.551zm0 12.352a5.8 5.8 0 1 1 5.782-5.8 5.8 5.8 0 0 1-5.782 5.804zm1.4-8.353h-2.612a1.214 1.214 0 0 0-1.212 1.215v2.617a1.214 1.214 0 0 0 1.212 1.215h2.611a1.214 1.214 0 0 0 1.212-1.215v-2.617a1.214 1.214 0 0 0-1.212-1.215zm.466 3.832a.467.467 0 0 1-.466.467h-2.612a.467.467 0 0 1-.466-.467v-2.617a.468.468 0 0 1 .466-.468h2.611a.468.468 0 0 1 .466.468v2.617zM66.4 22.266H6.715a.747.747 0 0 0-.746.749v106.279a.747.747 0 0 0 .746.748H66.4a.747.747 0 0 0 .746-.748V23.015a.747.747 0 0 0-.746-.749zm0 107.028H6.715V23.015H66.4v106.279z"/></svg>