<svg xmlns="http://www.w3.org/2000/svg" width="170" height="120" viewBox="0 0 170 120">
  <metadata><?xpacket begin="﻿" id="W5M0MpCehiHzreSzNTczkc9d"?>
<x:xmpmeta xmlns:x="adobe:ns:meta/" x:xmptk="Adobe XMP Core 5.6-c138 79.159824, 2016/09/14-01:09:01        ">
   <rdf:RDF xmlns:rdf="http://www.w3.org/1999/02/22-rdf-syntax-ns#">
      <rdf:Description rdf:about=""/>
   </rdf:RDF>
</x:xmpmeta>
                                                                                                    
                                                                                                    
                                                                                                    
                                                                                                    
                                                                                                    
                                                                                                    
                                                                                                    
                                                                                                    
                                                                                                    
                                                                                                    
                                                                                                    
                                                                                                    
                                                                                                    
                                                                                                    
                                                                                                    
                                                                                                    
                                                                                                    
                                                                                                    
                                                                                                    
                                                                                                    
                           
<?xpacket end="w"?></metadata>
<defs>
    <style>
      .cls-1 {
        fill: #222;
        fill-rule: evenodd;
      }
    </style>
  </defs>
  <path id="iPad_Air" data-name="iPad Air" class="cls-1" d="M718.075,6299.09a7.234,7.234,0,0,0-2.075,5.12v105.84a6.831,6.831,0,0,0,2.081,4.89A7.091,7.091,0,0,0,723.1,6417H878.9a7.384,7.384,0,0,0,7.1-7.63V6304.62a7.753,7.753,0,0,0-2.066-5.35,7.269,7.269,0,0,0-5.351-2.27H723.1A7.006,7.006,0,0,0,718.075,6299.09Zm160.508-1.55a6.86,6.86,0,0,1,6.877,7.08v104.75a6.842,6.842,0,0,1-6.556,7.09H723.1a6.524,6.524,0,0,1-6.557-6.41V6304.21a6.579,6.579,0,0,1,6.557-6.67H878.583Zm-161.234,6.66v105.84a5.505,5.505,0,0,0,1.679,3.94,5.749,5.749,0,0,0,4.068,1.67H878.9a6.043,6.043,0,0,0,5.747-6.29V6304.62a6.391,6.391,0,0,0-1.7-4.43,5.919,5.919,0,0,0-4.367-1.85H723.1a5.669,5.669,0,0,0-4.06,1.69A5.9,5.9,0,0,0,717.349,6304.2Zm161.234-5.32a5.376,5.376,0,0,1,3.973,1.67,5.9,5.9,0,0,1,1.555,4.07v104.74a5.505,5.505,0,0,1-5.207,5.75H723.1a5.25,5.25,0,0,1-3.689-1.51,4.987,4.987,0,0,1-1.518-3.56V6304.2a5.359,5.359,0,0,1,1.531-3.79,5.121,5.121,0,0,1,3.676-1.53H878.583Zm-147.338,6.33v103.44a0.672,0.672,0,0,0,.674.67H870.077a0.672,0.672,0,0,0,.675-0.67V6305.21a0.672,0.672,0,0,0-.675-0.67H731.919A0.672,0.672,0,0,0,731.245,6305.21Zm138.832,0v103.44H731.919V6305.21H870.077ZM725.31,6357a1.012,1.012,0,1,0-1.012,1.01A1.01,1.01,0,0,0,725.31,6357Zm-1.619,0a0.608,0.608,0,1,1,.607.6A0.607,0.607,0,0,1,723.691,6357Zm1.177,2.89a0.545,0.545,0,1,0-.544.54A0.541,0.541,0,0,0,724.868,6359.89Zm149.258-2.82a4.045,4.045,0,0,0,4.049,4.04h0.1A4.041,4.041,0,1,0,874.126,6357.07Zm7.558,0a3.5,3.5,0,0,1-3.426,3.5h-0.083A3.5,3.5,0,1,1,881.684,6357.07Zm-4.994-.8v1.59a0.688,0.688,0,0,0,.685.69h1.6a0.688,0.688,0,0,0,.685-0.69v-1.59a0.68,0.68,0,0,0-.685-0.68h-1.6A0.68,0.68,0,0,0,876.69,6356.27Zm2.284-.15a0.149,0.149,0,0,1,.145.15v1.59a0.149,0.149,0,0,1-.145.15h-1.6a0.149,0.149,0,0,1-.145-0.15v-1.59a0.149,0.149,0,0,1,.145-0.15h1.6Z" transform="translate(-716 -6297)"/>
</svg>
