<svg xmlns="http://www.w3.org/2000/svg" width="228" height="131" viewBox="0 0 228 131">
  <metadata><?xpacket begin="﻿" id="W5M0MpCehiHzreSzNTczkc9d"?>
<x:xmpmeta xmlns:x="adobe:ns:meta/" x:xmptk="Adobe XMP Core 5.6-c138 79.159824, 2016/09/14-01:09:01        ">
   <rdf:RDF xmlns:rdf="http://www.w3.org/1999/02/22-rdf-syntax-ns#">
      <rdf:Description rdf:about=""/>
   </rdf:RDF>
</x:xmpmeta>
                                                                                                    
                                                                                                    
                                                                                                    
                                                                                                    
                                                                                                    
                                                                                                    
                                                                                                    
                                                                                                    
                                                                                                    
                                                                                                    
                                                                                                    
                                                                                                    
                                                                                                    
                                                                                                    
                                                                                                    
                                                                                                    
                                                                                                    
                                                                                                    
                                                                                                    
                                                                                                    
                           
<?xpacket end="w"?></metadata>
<defs>
    <style>
      .cls-1 {
        fill: #222;
        fill-rule: evenodd;
      }
    </style>
  </defs>
  <path id="Macbook_Pro" data-name="Macbook Pro" class="cls-1" d="M227.638,123.7H206.563a6.817,6.817,0,0,0,.378-2.24V6.9A6.914,6.914,0,0,0,200.025,0H28.006a6.914,6.914,0,0,0-6.917,6.9V121.464a6.832,6.832,0,0,0,.378,2.24H0.359A0.358,0.358,0,0,0,0,124.06v3.521a0.688,0.688,0,0,0,.263.593q0.093,0.071.2,0.144h0A19.489,19.489,0,0,0,10.392,131H217.608a19.487,19.487,0,0,0,9.928-2.681h0c0.09-.062.176-0.124,0.255-0.186a0.6,0.6,0,0,0,.208-0.5v-3.568A0.37,0.37,0,0,0,227.638,123.7Zm-206.069-2.24V6.9A6.434,6.434,0,0,1,28.006.478H200.025A6.434,6.434,0,0,1,206.461,6.9V121.464a6.359,6.359,0,0,1-.408,2.24h-18.83l-0.024-.1-0.564-2.5h16.791a2.4,2.4,0,0,0,2.4-2.392V6.812a5.715,5.715,0,0,0-5.717-5.7H27.922a5.715,5.715,0,0,0-5.717,5.7v111.9a2.4,2.4,0,0,0,2.4,2.392H40.842l-0.564,2.5-0.024.1H21.977A6.353,6.353,0,0,1,21.569,121.464Zm76.3,2.24H40.746l0.585-2.585H186.147l0.584,2.585H97.871Zm31.755,0.479a2.5,2.5,0,0,1-2.244,2.082H100.619a2.505,2.505,0,0,1-2.245-2.082h31.252ZM24.6,120.626a1.919,1.919,0,0,1-1.919-1.914V6.812A5.235,5.235,0,0,1,27.922,1.59H200.107a5.236,5.236,0,0,1,5.238,5.222v111.9a1.919,1.919,0,0,1-1.919,1.914H24.6ZM0.479,124.183h97.41a2.985,2.985,0,0,0,2.73,2.561h26.763a2.985,2.985,0,0,0,2.73-2.561H227.52v3.448a0.208,0.208,0,0,1-.022.123c-0.055.042-.112,0.085-0.173,0.128H0.674c-0.043-.031-0.085-0.061-0.126-0.092a0.214,0.214,0,0,1-.069-0.209v-3.4Zm217.129,6.338H10.392a19.851,19.851,0,0,1-8.936-2.161H226.544A19.846,19.846,0,0,1,217.608,130.521ZM200.533,7.409H27.344a0.6,0.6,0,0,0-.6.6V116.059a0.6,0.6,0,0,0,.6.6H200.533a0.6,0.6,0,0,0,.6-0.6V8.007A0.6,0.6,0,0,0,200.533,7.409Zm0,108.65H27.344V8.007H200.533V116.059ZM114.046,5.75a0.957,0.957,0,1,0-.959-0.956A0.958,0.958,0,0,0,114.046,5.75Zm0-1.435a0.478,0.478,0,1,1-.48.479A0.48,0.48,0,0,1,114.046,4.315Zm-35.5,125.921h0l0.142,0a1.284,1.284,0,0,0,1.149-.363,0.311,0.311,0,0,0-.06-0.337,2.632,2.632,0,0,0-1.444-.322l-0.141,0a1.284,1.284,0,0,0-1.149.363,0.311,0.311,0,0,0,.06.337A2.63,2.63,0,0,0,78.542,130.236Zm70.5,0,0.142,0a2.63,2.63,0,0,0,1.443-.322,0.312,0.312,0,0,0,.06-0.337,1.284,1.284,0,0,0-1.149-.363l-0.142,0a2.63,2.63,0,0,0-1.443.322,0.309,0.309,0,0,0-.06.337A1.283,1.283,0,0,0,149.04,130.234Zm78.6-6.53H206.563a6.817,6.817,0,0,0,.378-2.24V6.9A6.914,6.914,0,0,0,200.025,0H28.006a6.914,6.914,0,0,0-6.917,6.9V121.464a6.832,6.832,0,0,0,.378,2.24H0.359A0.358,0.358,0,0,0,0,124.06v3.521a0.688,0.688,0,0,0,.263.593q0.093,0.071.2,0.144h0A19.489,19.489,0,0,0,10.392,131H217.608a19.487,19.487,0,0,0,9.928-2.681h0c0.09-.062.176-0.124,0.255-0.186a0.6,0.6,0,0,0,.208-0.5v-3.568A0.37,0.37,0,0,0,227.638,123.7Zm-206.069-2.24V6.9A6.434,6.434,0,0,1,28.006.478H200.025A6.434,6.434,0,0,1,206.461,6.9V121.464a6.359,6.359,0,0,1-.408,2.24h-18.83l-0.024-.1-0.564-2.5h16.791a2.4,2.4,0,0,0,2.4-2.392V6.812a5.715,5.715,0,0,0-5.717-5.7H27.922a5.715,5.715,0,0,0-5.717,5.7v111.9a2.4,2.4,0,0,0,2.4,2.392H40.842l-0.564,2.5-0.024.1H21.977A6.353,6.353,0,0,1,21.569,121.464Zm76.3,2.24H40.746l0.585-2.585H186.147l0.584,2.585H97.871Zm31.755,0.479a2.5,2.5,0,0,1-2.244,2.082H100.619a2.505,2.505,0,0,1-2.245-2.082h31.252ZM24.6,120.626a1.919,1.919,0,0,1-1.919-1.914V6.812A5.235,5.235,0,0,1,27.922,1.59H200.107a5.236,5.236,0,0,1,5.238,5.222v111.9a1.919,1.919,0,0,1-1.919,1.914H24.6ZM0.479,124.183h97.41a2.985,2.985,0,0,0,2.73,2.561h26.763a2.985,2.985,0,0,0,2.73-2.561H227.52v3.448a0.208,0.208,0,0,1-.022.123c-0.055.042-.112,0.085-0.173,0.128H0.674c-0.043-.031-0.085-0.061-0.126-0.092a0.214,0.214,0,0,1-.069-0.209v-3.4Zm217.129,6.338H10.392a19.851,19.851,0,0,1-8.936-2.161H226.544A19.846,19.846,0,0,1,217.608,130.521ZM200.533,7.409H27.344a0.6,0.6,0,0,0-.6.6V116.059a0.6,0.6,0,0,0,.6.6H200.533a0.6,0.6,0,0,0,.6-0.6V8.007A0.6,0.6,0,0,0,200.533,7.409Zm0,108.65H27.344V8.007H200.533V116.059ZM114.046,5.75a0.957,0.957,0,1,0-.959-0.956A0.958,0.958,0,0,0,114.046,5.75Zm0-1.435a0.478,0.478,0,1,1-.48.479A0.48,0.48,0,0,1,114.046,4.315Zm-35.5,125.921h0l0.142,0a1.284,1.284,0,0,0,1.149-.363,0.311,0.311,0,0,0-.06-0.337,2.632,2.632,0,0,0-1.444-.322l-0.141,0a1.284,1.284,0,0,0-1.149.363,0.311,0.311,0,0,0,.06.337A2.63,2.63,0,0,0,78.542,130.236Zm70.5,0,0.142,0a2.63,2.63,0,0,0,1.443-.322,0.312,0.312,0,0,0,.06-0.337,1.284,1.284,0,0,0-1.149-.363l-0.142,0a2.63,2.63,0,0,0-1.443.322,0.309,0.309,0,0,0-.06.337A1.283,1.283,0,0,0,149.04,130.234Z"/>
</svg>
