<svg xmlns="http://www.w3.org/2000/svg" width="72" height="151" viewBox="0 0 72 151">
  <metadata><?xpacket begin="﻿" id="W5M0MpCehiHzreSzNTczkc9d"?>
<x:xmpmeta xmlns:x="adobe:ns:meta/" x:xmptk="Adobe XMP Core 5.6-c138 79.159824, 2016/09/14-01:09:01        ">
   <rdf:RDF xmlns:rdf="http://www.w3.org/1999/02/22-rdf-syntax-ns#">
      <rdf:Description rdf:about=""/>
   </rdf:RDF>
</x:xmpmeta>
                                                                                                    
                                                                                                    
                                                                                                    
                                                                                                    
                                                                                                    
                                                                                                    
                                                                                                    
                                                                                                    
                                                                                                    
                                                                                                    
                                                                                                    
                                                                                                    
                                                                                                    
                                                                                                    
                                                                                                    
                                                                                                    
                                                                                                    
                                                                                                    
                                                                                                    
                                                                                                    
                           
<?xpacket end="w"?></metadata>
<defs>
    <style>
      .cls-1 {
        fill: #222;
        fill-rule: evenodd;
      }
    </style>
  </defs>
  <path id="iPhone_5c" data-name="iPhone 5c" class="cls-1" d="M65.107,4.032a11.046,11.046,0,0,0-4.453-.851h-48A11.048,11.048,0,0,0,8.2,4.032,8.111,8.111,0,0,0,5.292,6.163a9,9,0,0,0-2.12,5.812V140.147a9,9,0,0,0,2.121,5.812A8.105,8.105,0,0,0,8.2,148.09a11.028,11.028,0,0,0,4.453.852h48a11.026,11.026,0,0,0,4.453-.852,8.1,8.1,0,0,0,2.907-2.131,9,9,0,0,0,2.12-5.812V11.975a9,9,0,0,0-2.12-5.812A8.109,8.109,0,0,0,65.107,4.032Zm4.282,11.223V140.147a8.238,8.238,0,0,1-1.938,5.322,7.364,7.364,0,0,1-2.643,1.935,10.3,10.3,0,0,1-4.154.79h-48A10.3,10.3,0,0,1,8.5,147.4a7.368,7.368,0,0,1-2.642-1.935,8.238,8.238,0,0,1-1.938-5.322V11.975A8.233,8.233,0,0,1,5.856,6.654,7.365,7.365,0,0,1,8.5,4.718a10.3,10.3,0,0,1,4.154-.789h48a10.3,10.3,0,0,1,4.154.789,7.364,7.364,0,0,1,2.642,1.936,8.233,8.233,0,0,1,1.938,5.322v3.279ZM69.4,4.965C67.958,3.295,65.252,1.3,60.561,1.3H60.529V0.9A0.953,0.953,0,0,0,59.624,0H48.96a0.952,0.952,0,0,0-.9.91V1.3h-35.5c-4.691,0-7.4,1.991-8.84,3.662a10.988,10.988,0,0,0-2.6,7.1v9.573H0.813A0.786,0.786,0,0,0,0,22.39V28.6a0.786,0.786,0,0,0,.814.753H1.119v3.111H0.829a0.9,0.9,0,0,0-.83.825v9.585a0.867,0.867,0,0,0,.8.819H1.119v2.571H0.811a0.851,0.851,0,0,0-.812.8v9.661a0.88,0.88,0,0,0,.836.807H1.119v82.706a10.987,10.987,0,0,0,2.6,7.1C5.162,149.011,7.868,151,12.559,151h48c4.691,0,7.4-1.99,8.84-3.661a10.987,10.987,0,0,0,2.6-7.1V12.065A10.989,10.989,0,0,0,69.4,4.965ZM48.622,0.907A0.4,0.4,0,0,1,48.96.559H59.624A0.4,0.4,0,0,1,59.969.9V1.3H48.622v-0.4ZM0.813,28.788A0.2,0.2,0,0,1,.61,28.6V22.39a0.2,0.2,0,0,1,.2-0.188H1.119v6.586H0.813ZM0.8,43.131a0.316,0.316,0,0,1-.245-0.257V33.288a0.352,0.352,0,0,1,.27-0.264h0.29V43.131H0.8ZM0.836,56.973a0.34,0.34,0,0,1-.277-0.245V47.067a0.307,0.307,0,0,1,.252-0.242H1.119V56.973H0.836Zm70.418-41.63v124.9a10.229,10.229,0,0,1-2.417,6.609c-1.341,1.553-3.867,3.4-8.276,3.4h-48c-4.41,0-6.935-1.85-8.276-3.4a10.229,10.229,0,0,1-2.417-6.609V12.065A10.23,10.23,0,0,1,4.283,5.455c1.342-1.552,3.866-3.4,8.276-3.4h48c4.41,0,6.935,1.85,8.276,3.4a10.231,10.231,0,0,1,2.417,6.609v3.279ZM36.56,10.521A1.591,1.591,0,1,0,34.974,8.93,1.59,1.59,0,0,0,36.56,10.521Zm0-2.62A1.029,1.029,0,1,1,35.534,8.93,1.029,1.029,0,0,1,36.56,7.9Zm0,1.623A0.561,0.561,0,1,0,36,8.963,0.561,0.561,0,0,0,36.56,9.524Zm-5.083,6.565H41.643a1.5,1.5,0,0,0,0-2.994H31.477A1.5,1.5,0,0,0,31.477,16.089Zm0-2.221H41.643a0.725,0.725,0,0,1,0,1.449H31.477A0.725,0.725,0,0,1,31.477,13.868ZM36.56,133.344a6.55,6.55,0,1,0,6.529,6.551A6.54,6.54,0,0,0,36.56,133.344Zm0,12.352a5.8,5.8,0,1,1,5.782-5.8A5.8,5.8,0,0,1,36.56,145.7Zm1.4-8.353H35.348a1.214,1.214,0,0,0-1.212,1.215v2.617a1.214,1.214,0,0,0,1.212,1.215h2.611a1.214,1.214,0,0,0,1.212-1.215v-2.617A1.214,1.214,0,0,0,37.959,137.343Zm0.466,3.832a0.467,0.467,0,0,1-.466.467H35.348a0.467,0.467,0,0,1-.466-0.467v-2.617a0.468,0.468,0,0,1,.466-0.468h2.611a0.468,0.468,0,0,1,.466.468v2.617ZM66.4,22.266H6.715a0.747,0.747,0,0,0-.746.749V129.294a0.747,0.747,0,0,0,.746.748H66.4a0.747,0.747,0,0,0,.746-0.748V23.015A0.747,0.747,0,0,0,66.4,22.266Zm0,107.028H6.715V23.015H66.4V129.294Z"/>
</svg>
