<svg xmlns="http://www.w3.org/2000/svg" width="228" height="131">
  <defs>
    <style>
      .cls-1 { fill: #222; fill-rule: evenodd; }
    </style>
  </defs>
  <path id="Macbook_Pro" d="M227.638 123.7h-21.075a6.817 6.817 0 0 0 .378-2.24V6.9a6.914 6.914 0 0 0-6.916-6.9H28.006a6.914 6.914 0 0 0-6.917 6.9v114.564a6.832 6.832 0 0 0 .378 2.24H.359a.358.358 0 0 0-.359.356v3.521a.688.688 0 0 0 .263.593q.093.071.2.144A19.489 19.489 0 0 0 10.392 131h207.216a19.487 19.487 0 0 0 9.928-2.681c.09-.062.176-.124.255-.186a.6.6 0 0 0 .208-.5v-3.568a.37.37 0 0 0-.361-.365zm-206.069-2.24V6.9A6.434 6.434 0 0 1 28.006.478h172.019a6.434 6.434 0 0 1 6.436 6.422v114.564a6.359 6.359 0 0 1-.408 2.24h-18.83l-.024-.1-.564-2.5h16.791a2.4 2.4 0 0 0 2.4-2.392V6.812a5.715 5.715 0 0 0-5.717-5.7H27.922a5.715 5.715 0 0 0-5.717 5.7v111.9a2.4 2.4 0 0 0 2.4 2.392h16.237l-.564 2.5-.024.1H21.977a6.353 6.353 0 0 1-.408-2.24zm76.3 2.24H40.746l.585-2.585h144.816l.584 2.585h-88.86zm31.755.479a2.5 2.5 0 0 1-2.244 2.082h-26.761a2.505 2.505 0 0 1-2.245-2.082h31.252zM24.6 120.626a1.919 1.919 0 0 1-1.919-1.914V6.812a5.235 5.235 0 0 1 5.241-5.222h172.185a5.236 5.236 0 0 1 5.238 5.222v111.9a1.919 1.919 0 0 1-1.919 1.914H24.6zM.479 124.183h97.41a2.985 2.985 0 0 0 2.73 2.561h26.763a2.985 2.985 0 0 0 2.73-2.561h97.408v3.448a.208.208 0 0 1-.022.123c-.055.042-.112.085-.173.128H.674c-.043-.031-.085-.061-.126-.092a.214.214 0 0 1-.069-.209v-3.4zm217.129 6.338H10.392a19.851 19.851 0 0 1-8.936-2.161h225.088a19.846 19.846 0 0 1-8.936 2.161zM200.533 7.409H27.344a.6.6 0 0 0-.6.6v108.05a.6.6 0 0 0 .6.6h173.189a.6.6 0 0 0 .6-.6V8.007a.6.6 0 0 0-.6-.598zm0 108.65H27.344V8.007h173.189v108.052zM114.046 5.75a.957.957 0 1 0-.959-.956.958.958 0 0 0 .959.956zm0-1.435a.478.478 0 1 1-.48.479.48.48 0 0 1 .48-.479zm-35.5 125.921h.142a1.284 1.284 0 0 0 1.149-.363.311.311 0 0 0-.06-.337 2.632 2.632 0 0 0-1.444-.322h-.141a1.284 1.284 0 0 0-1.149.363.311.311 0 0 0 .06.337 2.63 2.63 0 0 0 1.439.322zm70.5 0h.142a2.63 2.63 0 0 0 1.443-.322.312.312 0 0 0 .06-.337 1.284 1.284 0 0 0-1.149-.363h-.142a2.63 2.63 0 0 0-1.443.322.309.309 0 0 0-.06.337 1.283 1.283 0 0 0 1.143.361zm78.6-6.53h-21.083a6.817 6.817 0 0 0 .378-2.24V6.9a6.914 6.914 0 0 0-6.916-6.9H28.006a6.914 6.914 0 0 0-6.917 6.9v114.564a6.832 6.832 0 0 0 .378 2.24H.359a.358.358 0 0 0-.359.356v3.521a.688.688 0 0 0 .263.593q.093.071.2.144A19.489 19.489 0 0 0 10.392 131h207.216a19.487 19.487 0 0 0 9.928-2.681c.09-.062.176-.124.255-.186a.6.6 0 0 0 .208-.5v-3.568a.37.37 0 0 0-.361-.365zm-206.069-2.24V6.9A6.434 6.434 0 0 1 28.006.478h172.019a6.434 6.434 0 0 1 6.436 6.422v114.564a6.359 6.359 0 0 1-.408 2.24h-18.83l-.024-.1-.564-2.5h16.791a2.4 2.4 0 0 0 2.4-2.392V6.812a5.715 5.715 0 0 0-5.717-5.7H27.922a5.715 5.715 0 0 0-5.717 5.7v111.9a2.4 2.4 0 0 0 2.4 2.392h16.237l-.564 2.5-.024.1H21.977a6.353 6.353 0 0 1-.408-2.24zm76.3 2.24H40.746l.585-2.585h144.816l.584 2.585h-88.86zm31.755.479a2.5 2.5 0 0 1-2.244 2.082h-26.769a2.505 2.505 0 0 1-2.245-2.082h31.252zM24.6 120.626a1.919 1.919 0 0 1-1.919-1.914V6.812a5.235 5.235 0 0 1 5.241-5.222h172.185a5.236 5.236 0 0 1 5.238 5.222v111.9a1.919 1.919 0 0 1-1.919 1.914H24.6zM.479 124.183h97.41a2.985 2.985 0 0 0 2.73 2.561h26.763a2.985 2.985 0 0 0 2.73-2.561h97.408v3.448a.208.208 0 0 1-.022.123c-.055.042-.112.085-.173.128H.674c-.043-.031-.085-.061-.126-.092a.214.214 0 0 1-.069-.209v-3.4zm217.129 6.338H10.392a19.851 19.851 0 0 1-8.936-2.161h225.088a19.846 19.846 0 0 1-8.936 2.161zM200.533 7.409H27.344a.6.6 0 0 0-.6.6v108.05a.6.6 0 0 0 .6.6h173.189a.6.6 0 0 0 .6-.6V8.007a.6.6 0 0 0-.6-.598zm0 108.65H27.344V8.007h173.189v108.052zM114.046 5.75a.957.957 0 1 0-.959-.956.958.958 0 0 0 .959.956zm0-1.435a.478.478 0 1 1-.48.479.48.48 0 0 1 .48-.479zm-35.5 125.921h.142a1.284 1.284 0 0 0 1.149-.363.311.311 0 0 0-.06-.337 2.632 2.632 0 0 0-1.444-.322h-.141a1.284 1.284 0 0 0-1.149.363.311.311 0 0 0 .06.337 2.63 2.63 0 0 0 1.439.322zm70.5 0h.142a2.63 2.63 0 0 0 1.443-.322.312.312 0 0 0 .06-.337 1.284 1.284 0 0 0-1.149-.363h-.142a2.63 2.63 0 0 0-1.443.322.309.309 0 0 0-.06.337 1.283 1.283 0 0 0 1.143.361z" data-name="Macbook Pro" class="cls-1"/>
</svg>
